<?xml version="1.0" standalone="no"?>
<!DOCTYPE svg PUBLIC "-//W3C//DTD SVG 20010904//EN"
 "http://www.w3.org/TR/2001/REC-SVG-20010904/DTD/svg10.dtd">
<svg version="1.0" xmlns="http://www.w3.org/2000/svg"
 width="256.000000pt" height="256.000000pt" viewBox="0 0 256.000000 256.000000"
 preserveAspectRatio="xMidYMid meet">
<metadata>
Created by potrace 1.11, written by Peter Selinger 2001-2013
</metadata>
<g transform="translate(0.000000,256.000000) scale(0.100000,-0.100000)"
fill="#000000" stroke="none">
<path d="M1660 1870 c-79 -10 -184 -46 -244 -84 -63 -41 -228 -209 -287 -293
-15 -21 -16 -21 -82 52 -108 117 -221 179 -322 175 -27 -1 -57 -2 -65 -2 -23
0 -152 -64 -175 -86 -38 -36 -83 -89 -94 -111 l-12 -22 -19 24 c-74 93 -224
65 -264 -51 -42 -122 86 -238 207 -187 13 6 17 2 17 -16 2 -74 25 -149 63
-200 7 -9 37 -31 67 -50 52 -32 59 -34 150 -34 89 0 99 2 159 35 78 42 215
174 295 283 l57 78 49 -75 c186 -285 485 -399 730 -278 65 32 161 119 191 172
l21 38 44 -31 c37 -26 53 -31 106 -31 101 -1 167 41 210 134 83 176 -87 376
-266 314 -50 -18 -56 -18 -56 3 0 27 -50 105 -94 147 -86 82 -219 115 -386 96z
m67 -131 c124 -40 195 -142 187 -268 -9 -137 -130 -255 -303 -295 -135 -30
-227 8 -373 156 l-97 98 55 83 c87 130 169 193 293 227 65 18 182 18 238 -1z
m-877 -144 c57 -9 132 -49 183 -98 26 -25 47 -50 47 -55 0 -26 -216 -195 -308
-242 -177 -91 -338 -1 -307 170 17 97 118 194 234 223 52 13 74 14 151 2z"/>
<path d="M1311 844 c-30 -16 -50 -50 -51 -87 0 -34 51 -87 84 -87 22 0 85 34
87 47 0 5 2 17 4 28 14 70 -62 131 -124 99z m73 -37 c38 -28 23 -83 -27 -100
-27 -10 -70 37 -62 66 13 43 55 59 89 34z"/>
<path d="M76 819 c-35 -41 -34 -83 3 -120 33 -33 67 -37 112 -13 24 12 28 18
19 29 -9 11 -16 10 -41 -2 -29 -14 -33 -14 -57 4 -51 38 -22 109 40 98 17 -3
35 -8 40 -11 19 -12 29 9 12 27 -12 13 -31 19 -60 19 -35 0 -47 -5 -68 -31z"/>
<path d="M291 828 c-5 -13 -20 -51 -34 -85 -20 -50 -22 -63 -11 -67 7 -3 18 4
24 14 15 28 75 28 90 0 15 -27 34 -25 27 3 -12 53 -16 64 -36 110 -22 51 -46
61 -60 25z m39 -68 c0 -11 -6 -17 -15 -16 -15 2 -17 9 -8 33 7 18 23 6 23 -17z"/>
<path d="M436 828 c-17 -77 -25 -143 -18 -150 13 -13 31 14 34 51 2 31 17 54
19 32 2 -12 2 -12 13 -53 11 -38 34 -43 47 -10 32 81 32 81 39 34 6 -43 24
-71 36 -59 4 4 1 44 -7 89 -11 63 -18 84 -31 86 -12 2 -21 -11 -34 -52 -10
-31 -20 -54 -23 -51 -2 3 -12 27 -21 53 -18 52 -46 68 -54 30z"/>
<path d="M639 838 c-5 -68 -3 -145 4 -155 19 -26 27 0 27 83 0 68 -3 84 -15
84 -8 0 -15 -6 -16 -12z"/>
<path d="M709 843 c-5 -29 -3 -156 2 -165 14 -23 29 5 29 55 l0 52 38 -55 c54
-80 66 -74 67 30 0 72 -3 85 -17 88 -14 3 -17 -6 -20 -50 l-3 -53 -34 53 c-30
46 -59 66 -62 45z"/>
<path d="M905 828 c-49 -42 -36 -123 23 -147 41 -16 71 -10 98 22 30 36 31 85
3 121 -27 34 -86 36 -124 4z m104 -40 c28 -50 -19 -100 -71 -74 -30 15 -36 61
-12 87 25 27 65 21 83 -13z"/>
<path d="M1105 827 c-37 -31 -41 -84 -10 -123 19 -24 30 -29 69 -29 49 0 72
15 63 39 -5 13 -10 13 -33 1 -63 -32 -116 43 -64 90 17 16 25 17 57 7 43 -13
62 -2 38 22 -25 24 -88 21 -120 -7z"/>
<path d="M1469 808 c-6 -70 4 -133 21 -133 12 0 15 12 13 53 -1 28 -1 52 1 52
2 0 20 -25 40 -56 20 -30 42 -54 49 -51 8 2 13 34 15 91 2 79 1 87 -15 84 -14
-3 -18 -13 -18 -51 0 -26 -2 -47 -5 -47 -3 0 -18 22 -35 48 -40 63 -62 67 -66
10z"/>
<path d="M1653 838 c-17 -28 -11 -49 24 -83 30 -29 34 -38 23 -45 -9 -5 -19
-5 -27 2 -7 5 -20 7 -29 4 -15 -6 -15 -9 4 -26 26 -25 54 -25 75 -2 25 28 21
57 -13 83 -16 13 -30 30 -30 37 0 15 12 16 28 0 9 -9 13 -7 18 5 3 9 3 21 -1
27 -9 14 -62 13 -72 -2z"/>
<path d="M1796 834 c-46 -46 -44 -109 3 -144 35 -24 62 -25 102 -4 24 12 28
18 19 29 -10 12 -15 12 -35 -1 -43 -28 -101 17 -87 69 7 26 49 40 85 28 38
-14 53 -4 31 20 -22 24 -95 26 -118 3z"/>
<path d="M1958 848 c-7 -13 -3 -164 6 -170 20 -13 26 4 25 87 0 67 -4 85 -15
85 -8 0 -15 -1 -16 -2z"/>
<path d="M2029 848 c-1 -2 -3 -41 -4 -88 l-2 -85 48 0 c41 -1 49 2 49 17 0 13
-8 18 -29 18 -29 0 -45 18 -33 36 4 5 18 9 32 9 16 0 25 6 25 15 0 10 -10 15
-27 15 -15 -1 -30 5 -32 12 -5 13 -3 15 37 17 12 0 22 7 22 16 0 10 -13 16
-42 18 -24 2 -44 2 -44 0z"/>
<path d="M2147 843 c-9 -19 0 -167 10 -170 18 -6 27 18 24 67 l-2 45 35 -51
c36 -53 61 -72 68 -51 2 7 4 46 4 87 -1 60 -4 75 -16 75 -11 0 -15 -12 -14
-48 0 -53 -9 -56 -34 -12 -34 58 -63 81 -75 58z"/>
<path d="M2310 829 c0 -11 5 -17 10 -14 10 6 12 -1 16 -75 3 -67 3 -67 19 -67
17 0 16 -1 18 79 1 32 6 58 11 57 11 -1 26 23 21 32 -3 3 -25 7 -50 7 -39 1
-45 -2 -45 -19z"/>
<path d="M2427 843 c-2 -4 -4 -44 -3 -88 l2 -80 44 0 c33 0 45 4 45 15 0 9
-11 16 -28 18 -23 3 -28 8 -25 25 2 17 9 22 31 21 21 -1 27 3 25 15 -2 9 -13
16 -28 16 -14 0 -26 7 -28 16 -2 11 5 15 25 15 18 -1 28 4 28 14 0 10 -13 16
-42 18 -22 2 -43 -1 -46 -5z"/>
</g>
</svg>
